<svg width="16" height="16" viewBox="0 0 16 16" fill="none" xmlns="http://www.w3.org/2000/svg">
<path fill-rule="evenodd" clip-rule="evenodd" d="M8 14C11.3137 14 14 11.3137 14 8C14 4.68629 11.3137 2 8 2C4.68629 2 2 4.68629 2 8C2 11.3137 4.68629 14 8 14ZM8 15C11.866 15 15 11.866 15 8C15 4.13401 11.866 1 8 1C4.13401 1 1 4.13401 1 8C1 11.866 4.13401 15 8 15Z" fill="#0069BA"/>
<path fill-rule="evenodd" clip-rule="evenodd" d="M8 12.9551C7.58579 12.9551 7.25 12.6193 7.25 12.2051L7.25 6.58909C7.25 6.17487 7.58579 5.83909 8 5.83909C8.41421 5.83909 8.75 6.17487 8.75 6.58909L8.75 12.2051C8.75 12.6193 8.41421 12.9551 8 12.9551Z" fill="#0069BA"/>
<ellipse cx="8" cy="3.875" rx="0.875" ry="0.875" transform="rotate(-180 8 3.875)" fill="#0069BA"/>
</svg>
