<svg width="25" height="25" fill="none" xmlns="http://www.w3.org/2000/svg"><path fill-rule="evenodd" clip-rule="evenodd" d="M8.214 7.413a4.75 4.75 0 119.5 0v3.25h1.25c.966 0 1.75.783 1.75 1.75v8a1.75 1.75 0 01-1.75 1.75h-12a1.75 1.75 0 01-1.75-1.75v-8c0-.967.783-1.75 1.75-1.75h1.25v-3.25zm8 0v3.25h-6.5v-3.25a3.25 3.25 0 116.5 0zm-9.25 4.75a.25.25 0 00-.25.25v8c0 .138.112.25.25.25h12a.25.25 0 00.25-.25v-8a.25.25 0 00-.25-.25h-12zm6 5.5a1.625 1.625 0 100-3.25 1.625 1.625 0 000 3.25z" fill="#687073"/></svg>